<svg width="215" height="387" viewBox="0 0 215 387" fill="none" xmlns="http://www.w3.org/2000/svg">
<g clip-path="url(#clip0)">
<path d="M215 387H0V0H215V387ZM201.758 376.861C202.079 372.425 202.561 368.35 202.641 364.252C203.215 334.563 203.788 304.868 204.184 275.168C204.31 265.917 204.717 256.54 203.49 247.422C201.535 233.623 200.64 219.695 200.812 205.76C201.116 189.138 201.66 172.517 201.66 155.925C201.66 137.876 200.605 119.816 201.012 101.791C201.586 77.478 203.071 53.1823 204.167 28.8809C204.402 23.671 204.637 18.4611 204.895 12.8328C201.316 13.0391 198.082 13.0391 194.899 13.4575C188.682 14.2656 182.442 15.6584 176.254 13.1824C175.512 12.9503 174.725 12.9012 173.96 13.0391C167.009 13.8587 160.127 13.1423 153.171 12.7067C138.025 11.7552 122.821 11.7667 107.641 11.3598C105.92 11.3139 104.199 11.142 102.513 10.9586C98.4415 10.523 94.3754 9.66898 90.3036 9.64606C65.1727 9.51423 40.0419 9.60021 14.9053 9.51423C12.7661 9.51423 11.9346 10.2765 11.9059 12.2367C11.8735 13.1928 11.9022 14.15 11.9919 15.1024C12.5367 19.7449 13.4314 24.3702 13.6264 29.0241C14.2745 44.373 15.5075 59.6818 14.6702 75.0937C13.678 93.4745 13.6035 111.895 12.8579 130.288C12.2844 144.777 11.275 159.255 10.4664 173.732C10.128 179.733 9.47998 185.74 9.54307 191.735C9.74953 212.586 10.323 233.483 10.5696 254.38C10.7417 268.416 10.5696 282.464 10.6729 296.489C10.7818 310.817 10.5754 325.146 11.3955 339.423C11.9116 348.513 12.1812 357.506 11.3152 366.562C11.0743 369.078 11.2808 371.64 11.2808 374.735C17.3599 374.259 23.1465 373.858 28.9217 373.336C52.6532 371.204 76.3331 370.041 100.07 373.755C111.753 375.577 123.584 376.976 135.392 377.314C155.155 377.887 174.964 377.48 194.732 377.434C196.906 377.434 199.074 377.09 201.758 376.861ZM9.63482 376.42C9.63482 376.66 9.63482 376.901 9.63482 377.136H109.728C94.3123 375.239 78.845 372.838 63.3777 372.809C45.6737 372.775 27.9697 374.844 10.2714 376.019C10.042 376.03 9.82408 376.282 9.60615 376.42H9.63482ZM205.474 68.2044C203.392 124.889 202.641 181.619 204.671 238.349H205.474V68.2044ZM9.58321 138.575H9.93878C10.3517 133.669 11.0055 128.769 11.1431 123.851C11.8141 99.269 12.617 74.6581 12.7776 50.0472C12.8235 42.3383 10.8965 34.6181 9.88143 26.9035L9.58321 26.9436V138.575ZM205.319 324.848C203.599 344.026 203.226 375.285 204.62 377.44C205.767 375.835 206.3 338.558 205.314 324.825L205.319 324.848ZM148.267 9.67471C163.677 11.8355 178.961 11.4973 194.233 9.67471H148.267Z" fill="white"/>
<path d="M110.932 238.796L104.05 265.625L22.7222 258.455C22.3723 253.589 21.9766 248.946 21.7243 244.298C20.6461 224.456 20.0038 204.596 21.621 184.76C22.9401 168.413 25.5323 152.342 33.4409 137.613C37.9199 129.279 44.1596 122.281 50.4682 115.386C64.605 99.9396 72.8691 81.6734 77.0672 60.788C64.4501 64.3587 52.9399 62.2266 42.4334 54.9247C32.2193 47.8234 24.7696 38.527 20.0152 26.1814C22.8483 29.2821 24.9703 32.0218 27.5281 34.2972C34.9263 40.9399 43.8442 44.0406 53.6511 44.6482C68.5048 45.5709 82.4007 41.622 95.964 36.0854L100.489 34.2398C97.6215 44.0406 95.1038 53.1078 92.2535 62.0604C86.8855 78.9223 78.4894 94.0935 66.4459 107.201C48.3003 126.969 39.7093 150.577 38.0805 177.125C36.7557 198.687 39.13 220.02 40.948 241.851C64.3201 242.64 87.7183 241.619 110.932 238.796Z" fill="white"/>
<path d="M189.984 269.918C165.146 253.377 140.336 254.638 114.798 270.067C115.371 265.143 115.773 260.747 116.45 256.397C119.036 239.776 126.469 225.304 136.407 211.932C143.639 202.189 151.049 192.583 157.627 182.427C167.531 167.17 172.337 150.056 174.086 132.024C176.157 110.663 174.258 89.5083 170.909 68.4051C170.336 64.6338 169.602 60.8854 168.931 57.1255C168.79 56.648 168.621 56.1792 168.426 55.7213L102.29 66.6742L110.778 35.9707L188.16 38.7734C188.275 39.7305 188.441 40.5501 188.458 41.3697C188.808 62.003 189.605 82.6019 189.33 103.212C189.066 121.358 186.979 139.389 181.462 156.859C177.631 168.987 171.11 179.573 163.167 189.339C139.195 218.81 142.607 238.011 142.423 238.63C162.112 243.14 177.573 254.477 189.984 269.918Z" fill="white"/>
<path d="M159.118 126.127C154.22 115.099 143.502 111.454 133.018 117.426C129.714 119.333 126.693 121.693 124.043 124.436C120.602 127.972 117.734 132.03 114.15 136.426C120.458 121.295 123.836 105.654 132.777 92.1677C131.63 92.7408 113.33 117.547 106.97 130.442C102.599 139.332 98.2007 148.256 93.1137 156.738C88.973 163.616 82.6473 168.064 74.1595 168.448C68.912 168.688 65.2244 166.493 63.6185 161.478C62.7569 158.76 62.405 155.905 62.5805 153.059C63.154 144.221 68.1836 137.423 73.5917 130.884C82.8309 119.713 92.2994 108.72 101.206 97.2859C106.43 90.5801 109.986 82.7968 112.676 74.0505C108.214 74.916 104.073 75.6382 100.059 76.5781C98.8029 76.7787 99.1183 76.6469 98.3383 78.5612C92.8901 92.1964 84.7177 104.095 74.8821 114.956C69.8051 120.529 65.0195 126.359 60.5446 132.426C50.8696 145.654 47.0272 160.481 49.5964 176.787C50.3649 181.705 52.4639 185.957 57.224 188.25C63.5325 191.299 69.841 190.829 75.4097 186.76C80.4451 183.092 85.0102 178.764 89.2139 175.199L73.1559 220.312C73.586 219.79 88.7264 197.386 94.3754 186.095C100.455 173.887 106.78 161.805 113.353 149.849C116.719 143.717 121.02 138.151 127.661 135.056C133.54 132.322 139.166 133.847 142.636 139.298C143.916 141.307 144.844 143.521 145.377 145.843C147.152 153.442 146.345 161.415 143.083 168.505C139.871 175.566 134.79 181.275 129.577 186.88C121.582 195.386 113.553 203.862 107.818 214.105C104.848 219.383 102.393 224.954 99.405 231.001L114.5 229.356C114.5 229.356 116.713 224.444 116.954 223.997C122.821 211.268 133.781 198.865 142.636 188.084C150.596 178.392 156.973 167.823 160.208 155.592C162.806 145.688 163.396 135.773 159.118 126.127Z" fill="white"/>
<path d="M112.842 325.879C112.842 317.671 112.917 309.458 112.802 301.233C112.768 298.614 113.869 297.508 116.329 297.559C121.296 297.657 126.279 297.559 131.211 298.006C137.027 298.545 139.2 301.273 139.195 307.102C139.195 319.329 139.181 331.556 139.154 343.784C139.154 350.73 136.39 353.722 129.405 354.158C125.121 354.421 120.802 354.318 116.518 354.501C113.829 354.616 112.739 353.521 112.768 350.805C112.854 342.494 112.768 334.183 112.768 325.879H112.842ZM121.875 325.558H121.84C121.84 332.435 121.909 339.313 121.8 346.156C121.8 348.122 122.494 348.638 124.312 348.518C128.241 348.254 129.978 346.328 130.013 341.531C130.093 331.134 130.093 320.739 130.013 310.346C130.013 308.782 130.15 306.879 129.583 305.394C128.636 302.935 126.027 303.102 123.928 303.4C123.605 303.447 123.299 303.572 123.035 303.763C122.771 303.955 122.558 304.208 122.414 304.5C122.072 305.276 121.903 306.117 121.921 306.965C121.812 313.16 121.875 319.362 121.875 325.552V325.558Z" fill="white"/>
<path d="M188.321 325.151C188.321 331.358 188.321 337.565 188.321 343.772C188.321 349.4 186.405 352.369 180.94 353.378C176.835 354.131 172.638 354.235 168.501 353.688C163.339 352.988 161.091 349.836 160.982 344.489C160.884 339.617 160.982 334.745 160.982 329.873C160.982 322.422 160.982 314.971 161.022 307.521C161.056 301.531 163.448 298.648 169.412 298.052C173.301 297.704 177.212 297.667 181.106 297.943C185.637 298.224 188.309 301.336 188.349 305.967C188.395 312.364 188.349 318.766 188.349 325.162L188.321 325.151ZM179.265 326.125H179.322C179.322 321.156 179.38 316.187 179.288 311.223C179.254 309.63 179.322 306.638 178.565 305.36C178.095 304.214 176.587 303.52 174.855 303.503C172.091 303.543 171.167 304.701 170.588 306.701C170.18 308.17 169.974 309.687 169.974 311.212C169.925 321.146 169.925 331.081 169.974 341.015C169.979 342.253 170.119 343.487 170.393 344.695C170.846 346.724 171.993 348.311 174.258 348.248C176.524 348.185 178.342 347.148 178.846 344.706C179.114 343.399 179.256 342.069 179.271 340.734C179.294 335.868 179.265 331.002 179.265 326.125Z" fill="white"/>
<path d="M79.3038 323.15V301.669C79.3038 298.047 79.8142 297.525 83.3642 297.496C87.6769 297.462 88.1644 297.886 88.1587 301.789C88.1587 314.968 88.1587 328.15 88.1587 341.336C88.2174 342.47 88.3418 343.599 88.5315 344.718C88.8239 347.097 90.252 348.3 92.546 348.317C95.0006 348.317 96.4515 346.873 97.0078 344.621C97.238 343.401 97.3246 342.158 97.2659 340.918C97.3003 327.833 97.2659 314.748 97.3978 301.669C97.3978 300.425 97.5182 298.058 101.584 298.007C105.599 298.058 106.264 299.921 106.264 300.718C106.299 315.424 106.327 330.131 106.264 344.85C106.235 350.765 103.867 353.447 97.977 354.02C94.371 354.395 90.7372 354.42 87.1264 354.095C81.4544 353.562 79.2407 350.885 79.2178 345.217C79.1891 337.863 79.2178 330.51 79.2178 323.156L79.3038 323.15Z" fill="white"/>
<path d="M27.7805 352.318C23.5939 350.077 21.73 344.626 23.1925 340.127C23.3687 339.778 23.6191 339.471 23.9262 339.229C24.2333 338.986 24.5896 338.813 24.9703 338.723C26.0657 338.488 27.2643 338.723 28.4113 338.637C30.5103 338.528 31.6115 339.428 31.8523 341.56C31.9726 342.795 32.2482 344.01 32.6724 345.176C33.7105 347.933 36.1134 349.051 38.6139 348.042C40.8104 347.165 41.7854 344.907 40.7015 342.311C39.7351 340.028 38.5602 337.839 37.1916 335.771C33.5556 330.257 29.8221 324.813 26.146 319.362C23.9524 316.083 22.8322 312.203 22.9401 308.26C22.986 303.463 25.4521 300.07 30.0401 298.648C34.4547 297.28 39.1666 297.186 43.6321 298.379C48.6445 299.686 51.7586 305.967 49.8775 310.799C49.6655 311.187 49.3723 311.524 49.018 311.788C48.6637 312.052 48.2565 312.237 47.8243 312.329C46.4217 312.637 44.9666 312.613 43.5747 312.261C42.5653 311.928 41.6133 310.834 41.057 309.836C40.4319 308.69 40.3975 307.263 39.91 306.042C39.0784 304.042 37.5587 302.987 35.322 303.686C33.2058 304.351 31.6918 305.773 32.3054 308.14C32.8232 310.258 33.6564 312.287 34.7772 314.158C38.7114 320.462 42.8062 326.681 46.9125 332.905C49.1189 336.174 50.2515 340.048 50.1528 343.99C50.0094 350.174 46.5741 353.905 40.4032 354.622C34.674 355.057 30.3956 353.711 27.7805 352.318Z" fill="white"/>
<path d="M23.0949 286.045V281.236H188.154V286.045H23.0949Z" fill="#FA5403"/>
<path d="M59.3975 302.786H54.1557C52.4008 302.786 51.5119 301.869 51.4144 300.173C51.3112 298.333 52.3664 297.599 54.0697 297.599C60.6592 297.599 66.5032 297.473 73.087 297.668C73.953 297.668 76.3158 297.496 76.2413 300.104C76.2786 300.446 76.243 300.791 76.1369 301.118C76.0308 301.445 75.8565 301.745 75.6257 302C75.3948 302.254 75.1126 302.457 74.7975 302.595C74.4825 302.732 74.1419 302.802 73.7981 302.798C72.112 302.798 70.4202 302.798 68.4474 302.798V306.237C68.4244 321.139 68.4015 336.027 68.3786 350.902C68.3786 354.341 67.914 354.628 63.2973 354.605C59.8104 354.605 59.3459 354.192 59.3459 350.988C59.3459 336.572 59.3612 322.159 59.3918 307.75C59.3975 306.243 59.3975 304.724 59.3975 302.786Z" fill="white"/>
<path d="M145.509 325.718C145.509 317.518 145.509 309.316 145.509 301.113C145.509 297.811 145.985 297.422 149.695 297.422C153.956 297.422 154.541 297.84 154.541 301.078C154.541 317.7 154.438 334.263 154.541 350.856C154.541 353.607 153.435 354.45 151.037 354.41C150.085 354.41 149.133 354.301 148.17 354.272C146.157 354.203 145.383 353.24 145.4 351.177C145.486 342.694 145.44 334.206 145.44 325.718H145.509Z" fill="white"/>
</g>
<defs>
<clipPath id="clip0">
<rect width="215" height="387" fill="white"/>
</clipPath>
</defs>
</svg>
