<svg width="41" height="60" viewBox="0 0 41 60" fill="none" xmlns="http://www.w3.org/2000/svg">
<g opacity="1">
<path d="M21.9643 52.0087L20.3017 58.5714L0.653954 56.8175C0.569439 55.6272 0.47384 54.4916 0.412878 53.3546C0.152405 48.5009 -0.00277109 43.6429 0.387939 38.7906C0.706603 34.7921 1.33285 30.8609 3.24345 27.2577C4.32552 25.2192 5.83294 23.5074 7.35699 21.8208C10.7722 18.0424 12.7687 13.5742 13.7829 8.46529C10.7348 9.33873 7.95414 8.81719 5.41591 7.03104C2.94834 5.29396 1.14858 3.01991 0 0C0.684436 0.758483 1.19707 1.42864 1.815 1.98523C3.60229 3.61015 5.75674 4.36864 8.12594 4.51725C11.7144 4.74297 15.0714 3.77699 18.3481 2.42266L19.4413 1.97121C18.7485 4.36864 18.1403 6.5866 17.4517 8.77653C16.1549 12.9012 14.1265 16.6123 11.217 19.8187C6.83327 24.6542 4.7578 30.4291 4.36432 36.9231C4.04427 42.1975 4.61786 47.4157 5.05706 52.7559C10.7034 52.9491 16.3561 52.6993 21.9643 52.0087Z" fill="white"/>
<path d="M41 59.2676C35.1936 55.2842 29.3939 55.5878 23.424 59.3035C23.558 58.1178 23.6519 57.0592 23.8101 56.0116C24.4147 52.0088 26.1522 48.5237 28.4756 45.3036C30.1661 42.9571 31.8983 40.6438 33.436 38.198C35.7513 34.5238 36.8748 30.4024 37.2837 26.0601C37.7677 20.9159 37.3239 15.8214 36.541 10.7393C36.4069 9.83111 36.2353 8.92842 36.0784 8.02298C36.0456 7.90798 36.0062 7.79507 35.9605 7.68481L20.5 10.3225L22.4842 2.92847L40.5737 3.60341C40.6005 3.83391 40.6394 4.03129 40.6434 4.22866C40.7252 9.19757 40.9115 14.1582 40.8472 19.1216C40.7855 23.4915 40.2975 27.8337 39.0078 32.0407C38.1122 34.9613 36.5879 37.5107 34.7311 39.8626C29.1271 46.9599 29.9248 51.5837 29.8819 51.7328C34.4844 52.819 38.0988 55.5492 41 59.2676Z" fill="white"/>
<path d="M32.952 26.3032C31.8139 23.8341 29.3231 23.0179 26.887 24.3551C26.1192 24.7821 25.4172 25.3104 24.8014 25.9246C24.0018 26.7164 23.3354 27.625 22.5025 28.6094C23.9685 25.2214 24.7534 21.7191 26.831 18.6994C26.5645 18.8278 22.3119 24.3821 20.834 27.2696C19.8185 29.26 18.7964 31.2582 17.6143 33.1575C16.6521 34.6975 15.1822 35.6934 13.2098 35.7794C11.9904 35.8333 11.1335 35.3417 10.7604 34.2188C10.5601 33.6101 10.4784 32.9709 10.5191 32.3336C10.6524 30.3547 11.8212 28.8327 13.0779 27.3684C15.2248 24.8672 17.425 22.4057 19.4947 19.8455C20.7087 18.344 21.535 16.6012 22.16 14.6428C21.1232 14.8366 20.161 14.9983 19.2281 15.2088C18.9363 15.2537 19.0096 15.2242 18.8283 15.6528C17.5623 18.7059 15.6632 21.3701 13.3777 23.802C12.1979 25.0497 11.0859 26.3553 10.046 27.7136C7.79782 30.6755 6.90493 33.9955 7.50197 37.6466C7.68055 38.7477 8.16831 39.6999 9.27442 40.2133C10.7404 40.896 12.2063 40.7908 13.5003 39.8796C14.6704 39.0583 15.7312 38.0894 16.7081 37.2911L12.9766 47.3923C13.0765 47.2755 16.5948 42.2589 17.9075 39.7307C19.3201 36.9972 20.79 34.292 22.3173 31.6149C23.0995 30.2418 24.0991 28.9956 25.6423 28.3026C27.0083 27.6905 28.3156 28.0319 29.1219 29.2523C29.4195 29.7022 29.635 30.1979 29.7589 30.7179C30.1714 32.4194 29.9839 34.2047 29.2258 35.7922C28.4795 37.3733 27.2988 38.6515 26.0874 39.9066C24.2297 41.811 22.3639 43.7091 21.0312 46.0024C20.3409 47.1844 19.7705 48.4318 19.0762 49.7857L22.5838 49.4174C22.5838 49.4174 23.0982 48.3175 23.1542 48.2174C24.5175 45.3672 27.0642 42.59 29.1219 40.1761C30.9716 38.0059 32.4536 35.6395 33.2052 32.9008C33.8089 30.6832 33.9462 28.4631 32.952 26.3032Z" fill="white"/>
</g>
</svg>
