<svg width="91" height="113" viewBox="0 0 91 113" fill="none" xmlns="http://www.w3.org/2000/svg">
<circle cx="45.5" cy="45.5" r="45.5" fill="#FA5403"/>
<path d="M47.2593 64.6035L45.8014 70.358L28.5734 68.8201C28.4993 67.7764 28.4155 66.7807 28.362 65.7837C28.1336 61.5277 27.9976 57.268 28.3402 53.0133C28.6196 49.5072 29.1687 46.0602 30.844 42.9008C31.7928 41.1133 33.1146 39.6123 34.4509 38.1334C37.4456 34.8203 39.1962 30.9024 40.0855 26.4227C37.4128 27.1886 34.9745 26.7313 32.7489 25.1651C30.5852 23.642 29.0071 21.648 28 19C28.6001 19.6651 29.0496 20.2527 29.5915 20.7407C31.1586 22.1655 33.0478 22.8306 35.1252 22.9609C38.2717 23.1588 41.2153 22.3118 44.0885 21.1243L45.047 20.7284C44.4396 22.8306 43.9062 24.7754 43.3024 26.6957C42.1653 30.3124 40.3868 33.5664 37.8355 36.3779C33.9917 40.6179 32.1718 45.6815 31.8268 51.3758C31.5462 56.0006 32.0491 60.5762 32.4343 65.2587C37.3852 65.4281 42.3417 65.209 47.2593 64.6035V64.6035Z" fill="white"/>
<path d="M63.9507 70.9685C58.8594 67.4757 53.7739 67.742 48.5392 71C48.6568 69.9604 48.7391 69.0321 48.8778 68.1135C49.4079 64.6037 50.9315 61.5478 52.9687 58.7243C54.451 56.6668 55.9699 54.6384 57.3182 52.4938C59.3484 49.2721 60.3335 45.6582 60.692 41.8507C61.1164 37.3401 60.7273 32.873 60.0408 28.4168C59.9232 27.6204 59.7728 26.8289 59.6352 26.035C59.6064 25.9342 59.5718 25.8352 59.5318 25.7385L45.9753 28.0513L47.7152 21.5679L63.5768 22.1597C63.6003 22.3618 63.6344 22.5349 63.638 22.708C63.7097 27.0649 63.8731 31.4146 63.8166 35.7667C63.7626 39.5984 63.3347 43.4059 62.2038 47.0948C61.4185 49.6558 60.0819 51.8911 58.4538 53.9534C53.54 60.1766 54.2394 64.231 54.2018 64.3617C58.2375 65.3142 61.4068 67.7081 63.9507 70.9685Z" fill="white"/>
<path d="M56.8937 42.0639C55.8957 39.8988 53.7117 39.1831 51.5756 40.3557C50.9024 40.73 50.2868 41.1933 49.7469 41.7319C49.0457 42.4262 48.4615 43.2229 47.7311 44.086C49.0165 41.1152 49.7048 38.0443 51.5265 35.3965C51.2928 35.5091 47.564 40.3793 46.2681 42.9112C45.3777 44.6565 44.4814 46.4086 43.4449 48.074C42.6012 49.4243 41.3123 50.2976 39.5829 50.373C38.5136 50.4202 37.7623 49.9892 37.4351 49.0046C37.2595 48.4708 37.1878 47.9104 37.2236 47.3516C37.3404 45.6164 38.3652 44.2818 39.4672 42.9978C41.3497 40.8047 43.279 38.6464 45.0937 36.4014C46.1583 35.0848 46.8828 33.5567 47.4308 31.8395C46.5217 32.0094 45.678 32.1512 44.86 32.3358C44.6041 32.3751 44.6684 32.3493 44.5094 32.7251C43.3993 35.4022 41.7341 37.7383 39.7301 39.8707C38.6956 40.9648 37.7205 42.1096 36.8087 43.3005C34.8374 45.8977 34.0545 48.8088 34.578 52.0102C34.7346 52.9757 35.1622 53.8107 36.1321 54.2608C37.4175 54.8595 38.7029 54.7672 39.8376 53.9682C40.8636 53.2481 41.7937 52.3985 42.6503 51.6985L39.3784 60.5557C39.466 60.4533 42.551 56.0545 43.702 53.8377C44.9406 51.4409 46.2295 49.0688 47.5687 46.7214C48.2546 45.5174 49.131 44.4247 50.4842 43.817C51.682 43.2803 52.8283 43.5796 53.5353 44.6498C53.7963 45.0443 53.9852 45.4789 54.0938 45.9348C54.4556 47.4268 54.2911 48.9922 53.6264 50.3842C52.972 51.7706 51.9367 52.8913 50.8745 53.9919C49.2455 55.6618 47.6096 57.3261 46.441 59.337C45.8357 60.3734 45.3356 61.4671 44.7268 62.6543L47.8024 62.3314C47.8024 62.3314 48.2535 61.367 48.3025 61.2792C49.498 58.78 51.731 56.3448 53.5353 54.2282C55.1572 52.3253 56.4566 50.2503 57.1157 47.8489C57.6451 45.9044 57.7654 43.9577 56.8937 42.0639Z" fill="white"/>
<path d="M45 113L32.0096 86L57.9904 86L45 113Z" fill="#FA5403"/>
</svg>
