<svg width="126" height="83" viewBox="0 0 126 83" fill="none" xmlns="http://www.w3.org/2000/svg">
<path d="M92.6994 1.44766H32.3796V81.5523H92.6994V1.44766Z" stroke="#86330A" stroke-width="3" stroke-miterlimit="10"/>
<path d="M94.1471 80.1046H30.9224V82.971H94.1471V80.1046Z" fill="#FA5403"/>
<path d="M62.5395 28.0849C66.6331 28.0849 69.9516 24.7664 69.9516 20.6728C69.9516 16.5792 66.6331 13.2607 62.5395 13.2607C58.446 13.2607 55.1274 16.5792 55.1274 20.6728C55.1274 24.7664 58.446 28.0849 62.5395 28.0849Z" fill="#86330A"/>
<path d="M62.5396 32.6016C69.1277 32.6016 74.4684 27.2609 74.4684 20.6728C74.4684 14.0846 69.1277 8.74393 62.5396 8.74393C55.9514 8.74393 50.6107 14.0846 50.6107 20.6728C50.6107 27.2609 55.9514 32.6016 62.5396 32.6016Z" stroke="#FA5403" stroke-width="2" stroke-miterlimit="10"/>
<path d="M62.5396 67.7608C68.4188 67.7608 73.1848 62.9948 73.1848 57.1156C73.1848 51.2364 68.4188 46.4703 62.5396 46.4703C56.6604 46.4703 51.8943 51.2364 51.8943 57.1156C51.8943 62.9948 56.6604 67.7608 62.5396 67.7608Z" fill="#FA5403"/>
<path d="M62.5396 74.256C72.006 74.256 79.68 66.582 79.68 57.1156C79.68 47.6491 72.006 39.9751 62.5396 39.9751C53.0732 39.9751 45.3991 47.6491 45.3991 57.1156C45.3991 66.582 53.0732 74.256 62.5396 74.256Z" stroke="#86330A" stroke-width="2" stroke-miterlimit="10"/>
<path d="M6.27327 58.3316C-1.93022 47.503 0.395713 32.4376 6.27327 24.6684" stroke="#FA5403" stroke-width="2" stroke-miterlimit="10"/>
<path d="M15.7604 55.9092C9.00454 46.9722 10.9348 34.5415 15.7604 28.1331" stroke="#FA5403" stroke-width="2" stroke-miterlimit="10"/>
<path d="M118.835 24.6684C125.87 33.9624 125.87 49.0375 118.835 58.3316" stroke="#FA5403" stroke-width="2" stroke-miterlimit="10"/>
<path d="M109.521 28.1331C115.312 35.854 115.312 48.2365 109.521 55.9092" stroke="#FA5403" stroke-width="2" stroke-miterlimit="10"/>
</svg>
