<svg width="83" height="83" viewBox="0 0 83 83" fill="none" xmlns="http://www.w3.org/2000/svg">
<g clip-path="url(#clip0)">
<path fill-rule="evenodd" clip-rule="evenodd" d="M44.5579 49.1447L41.2816 52.4939L32.2535 61.4491H21.5509V70.6956H12.3044V79.9421H3.05789L0 83H3.05789H15.3623V73.7535H24.6088V64.5798H33.8553L47.7614 50.6737C47.1789 50.3825 46.5237 50.0912 45.9412 49.8728C45.4316 49.5816 44.9947 49.3632 44.5579 49.1447Z" fill="#FA5403"/>
<path fill-rule="evenodd" clip-rule="evenodd" d="M56.8623 0C42.4465 0 30.7246 11.7219 30.7246 26.1377C30.7246 29.3412 31.307 32.3991 32.3263 35.2386L0 67.6377V83L3.05789 79.9421V69.1667L33.7825 38.4421C36.1851 42.9561 39.9711 46.7421 44.4851 49.1447C44.9219 49.3632 46.5237 50.2368 47.6886 50.6009C50.5281 51.693 53.586 52.2026 56.7895 52.2026C71.2053 52.2026 82.9272 40.4807 82.9272 26.0649C83 11.7219 71.2781 0 56.8623 0ZM56.8623 49.2175C44.1211 49.2175 33.7825 38.8789 33.7825 26.1377C33.7825 13.3965 44.1211 3.05789 56.8623 3.05789C69.6035 3.05789 79.9421 13.3965 79.9421 26.1377C79.9421 38.8789 69.6035 49.2175 56.8623 49.2175Z" fill="#86330A"/>
<path fill-rule="evenodd" clip-rule="evenodd" d="M63.1237 10.7026C58.0272 10.7026 53.8772 14.8526 53.8772 19.9491C53.8772 25.0456 58.0272 29.1228 63.1237 29.1228C68.2202 29.1228 72.3702 24.9728 72.3702 19.8763C72.3702 14.7798 68.2202 10.7026 63.1237 10.7026ZM63.1237 26.0649C59.7018 26.0649 57.0079 23.2983 57.0079 19.9491C57.0079 16.6 59.7746 13.8333 63.1237 13.8333C66.5456 13.8333 69.2395 16.6 69.2395 19.9491C69.2395 23.2983 66.4728 26.0649 63.1237 26.0649Z" fill="#FA5403"/>
</g>
<defs>
<clipPath id="clip0">
<rect width="83" height="83" fill="white"/>
</clipPath>
</defs>
</svg>
