<svg width="75" height="83" viewBox="0 0 75 83" fill="none" xmlns="http://www.w3.org/2000/svg">
<path d="M10.2832 0H7.34515V35.2566H10.2832V0Z" fill="#86330A"/>
<path d="M10.2832 57.292H7.34515V83H10.2832V57.292Z" fill="#86330A"/>
<path d="M38.9292 0H35.9911V4.40708H38.9292V0Z" fill="#86330A"/>
<path d="M38.9292 26.4425H35.9911V83H38.9292V26.4425Z" fill="#86330A"/>
<path d="M67.5752 74.9203H64.6371V83H67.5752V74.9203Z" fill="#86330A"/>
<path d="M67.5752 0H64.6371V52.885H67.5752V0Z" fill="#86330A"/>
<path d="M0 35.2567V57.292H17.6283V35.2567H0ZM14.323 51.4159H3.30531V49.9469H14.323V51.4159ZM14.323 47.0089H3.30531V45.5398H14.323V47.0089ZM14.323 42.6018H3.30531V41.1328H14.323V42.6018Z" fill="#FA5403"/>
<path d="M28.646 4.40707V26.4425H46.2743V4.40707H28.646ZM42.969 20.5664H31.9513V19.0973H42.969V20.5664ZM42.969 16.1593H31.9513V14.6903H42.969V16.1593ZM42.969 11.7522H31.9513V10.2832H42.969V11.7522Z" fill="#FA5403"/>
<path d="M57.2921 52.8849V74.9203H74.9204V52.8849H57.2921ZM71.6151 69.0442H60.5974V67.5752H71.6151V69.0442ZM71.6151 64.6372H60.5974V63.1681H71.6151V64.6372ZM71.6151 60.2301H60.5974V58.7611H71.6151V60.2301Z" fill="#FA5403"/>
</svg>
