<svg width="87" height="83" viewBox="0 0 87 83" fill="none" xmlns="http://www.w3.org/2000/svg">
<path d="M61.8174 65.3379C60.445 65.3379 58.9533 65.5765 57.5212 66.1136C52.3896 67.9036 49.2272 72.2595 50.5399 75.8993C51.793 79.4795 56.9842 81.0309 62.1157 79.2408C64.6815 78.3458 66.8296 76.7944 68.1423 74.8253C68.9777 73.5722 69.3954 72.3192 69.3954 71.0661V38.7254C69.3954 38.248 69.7534 37.8303 70.2308 37.7706L80.4939 36.6369V30.5507L63.3091 32.4004V64.3235C63.3091 64.6218 63.1898 64.8605 63.0108 65.0395C62.8318 65.2185 62.5931 65.3379 62.2948 65.3379C62.1157 65.3379 61.9367 65.3379 61.8174 65.3379Z" fill="#86330A"/>
<path d="M13.4853 39.6204C12.1129 39.6204 10.6211 39.8591 9.18907 40.3961C4.05751 42.1862 0.954711 46.542 2.20777 50.1819C3.46082 53.762 8.65205 55.3134 13.7836 53.5233C16.3494 52.6283 18.4975 51.0769 19.8102 49.1078C20.6456 47.8548 21.0633 46.6017 21.0633 45.3486V13.0676C21.0633 12.5902 21.4213 12.1725 21.8986 12.1128L46.5421 9.42773C46.8404 9.36806 47.0791 9.4874 47.3178 9.66641C47.5564 9.84541 47.6161 10.0841 47.6161 10.3824V35.9209C47.6161 36.2192 47.4968 36.4579 47.3178 36.6369C47.1388 36.8159 46.9001 36.9353 46.6017 36.9353C45.0503 36.8756 43.3796 37.1143 41.8282 37.6513C36.6966 39.4414 33.5342 43.7972 34.8469 47.4371C36.0999 51.0172 41.2912 52.5686 46.4227 50.7786C48.9885 49.8835 51.1366 48.3321 52.4493 46.363C53.2847 45.11 53.7024 43.8569 53.7024 42.6039V2.62543L15.0367 6.80228V38.7254C15.0367 39.0237 14.9173 39.2624 14.7383 39.4414C14.5593 39.6204 14.3206 39.7397 14.0223 39.7397C13.8433 39.6204 13.6643 39.6204 13.4853 39.6204Z" fill="#FA5403"/>
</svg>
