<svg width="136" height="83" viewBox="0 0 136 83" fill="none" xmlns="http://www.w3.org/2000/svg">
<g clip-path="url(#clip0)">
<path d="M93.5397 0C89.1262 0 84.7786 0.724603 80.6286 2.04206L79.7064 2.37143V36.6913V46.3087V80.6286L80.6286 80.9579C84.7786 82.3413 89.1262 83 93.5397 83C116.398 83 135.04 64.3579 135.04 41.5C135.04 18.6421 116.398 0 93.5397 0ZM93.5397 2.63492C103.091 2.63492 111.918 6.12619 118.703 11.923L97.6238 33.0024C95.5159 31.0921 92.881 30.0381 89.9826 30.0381C87.0841 30.0381 84.4492 31.0921 82.3413 32.9365V4.28175C85.9643 3.1619 89.7191 2.63492 93.5397 2.63492ZM82.3413 37.0206C83.9222 34.3198 86.8206 32.673 89.9826 32.673C92.354 32.673 94.5937 33.5952 96.2405 35.2421C97.8873 36.9548 98.8095 39.1286 98.8095 41.5C98.8095 43.8714 97.8873 46.1111 96.2405 47.7579C94.5278 49.4048 92.354 50.327 89.9826 50.327C86.8206 50.327 83.9222 48.6802 82.3413 45.9794V37.0206ZM93.5397 80.3651C89.7191 80.3651 85.9643 79.8381 82.3413 78.7183V50.0635C84.3833 51.9079 87.15 52.9619 89.9826 52.9619C92.881 52.9619 95.5159 51.9079 97.6238 49.9976L118.703 71.077C111.918 76.8738 103.091 80.3651 93.5397 80.3651ZM120.877 69.1008L99.6 47.8238C100.852 45.9794 101.51 43.8056 101.51 41.5C101.51 39.2603 100.852 37.0206 99.6 35.1762L120.877 13.8992C127.991 20.9476 132.405 30.6968 132.405 41.5C132.405 52.3032 127.991 62.0524 120.877 69.1008Z" fill="#FA5403"/>
<path d="M81.0238 1.71271H1.31746V81.4191H81.0238V1.71271Z" stroke="#86330A" stroke-width="3" stroke-miterlimit="10"/>
<path d="M59.9444 53.3571C59.9444 54.2794 59.6151 55.2675 58.9564 56.2555C57.9024 57.7706 56.1897 59.0222 54.1476 59.7468C50.0635 61.1301 46.0452 60.0103 45.0571 57.2436C44.0691 54.4111 46.5722 51.0516 50.6564 49.6682C51.9079 49.2071 53.2254 49.0095 54.477 49.0754C54.8064 49.0754 55.2016 48.9436 55.3992 48.746C55.6627 48.4825 55.7944 48.1532 55.7944 47.8238V26.3492C55.7944 26.0198 55.6627 25.6246 55.3333 25.427C55.0698 25.1635 54.6746 25.0317 54.3452 25.0976L33.6611 27.3373C33.0024 27.4032 32.4754 27.9301 32.4754 28.6548V55.7286C32.4754 56.6508 32.146 57.6389 31.4873 58.627C30.4333 60.1421 28.7206 61.4595 26.6786 62.1182C22.5944 63.5016 18.5762 62.3817 17.5881 59.6151C16.6 56.7825 19.1032 53.423 23.1873 52.0397C24.3071 51.6444 25.4929 51.4468 26.6127 51.4468C26.7444 51.4468 26.8762 51.4468 27.0079 51.4468C27.3373 51.4468 27.7325 51.3151 27.9302 51.1175C28.1937 50.854 28.3254 50.5246 28.3254 50.1952V23.7143L59.9444 20.2889V53.3571Z" fill="#FA5403"/>
</g>
<defs>
<clipPath id="clip0">
<rect width="135.04" height="83" fill="white"/>
</clipPath>
</defs>
</svg>
