<svg width="49" height="83" viewBox="0 0 49 83" fill="none" xmlns="http://www.w3.org/2000/svg">
<path d="M46.4223 22.5012H36.1168V25.9555H46.4223V22.5012Z" fill="#86330A"/>
<path d="M12.023 22.5012H1.71753V25.9555H12.023V22.5012Z" fill="#86330A"/>
<path d="M36.0692 10.363H29.2466V13.8173H36.0692V10.363Z" fill="#86330A"/>
<path d="M36.0692 18.9988H29.2466V22.4532H36.0692V18.9988Z" fill="#86330A"/>
<path d="M36.0692 27.6826H29.2466V31.137H36.0692V27.6826Z" fill="#86330A"/>
<path d="M18.8457 10.363H12.0231V13.8173H18.8457V10.363Z" fill="#86330A"/>
<path d="M18.8457 18.9988H12.0231V22.4532H18.8457V18.9988Z" fill="#86330A"/>
<path d="M18.8457 27.6826H12.0231V31.137H18.8457V27.6826Z" fill="#86330A"/>
<path d="M24.0939 58.7717C10.7826 58.7717 0 47.9289 0 34.5913V17.2717H3.43516V34.5433C3.43516 45.9618 12.691 55.3173 24.0939 55.3173C35.4967 55.3173 44.7525 46.0098 44.7525 34.5433V17.2717H48.1877V34.5433C48.14 47.9289 37.3574 58.7717 24.0939 58.7717Z" fill="#FA5403"/>
<path d="M24.0938 48.4087C16.5078 48.4087 10.3532 42.2197 10.3532 34.5913V13.8173C10.3055 6.18902 16.5078 0 24.0938 0C31.6798 0 37.8345 6.18902 37.8345 13.8173V34.5913C37.8345 42.2197 31.6798 48.4087 24.0938 48.4087ZM24.0938 3.45434C18.4163 3.45434 13.7883 8.10809 13.7883 13.8173V34.5913C13.7883 40.3006 18.4163 44.9543 24.0938 44.9543C29.7714 44.9543 34.3993 40.3006 34.3993 34.5913V13.8173C34.3993 8.10809 29.7714 3.45434 24.0938 3.45434Z" fill="#FA5403"/>
<path d="M25.8114 57.0445H22.3762V81.2728H25.8114V57.0445Z" fill="#FA5403"/>
<path d="M36.1169 79.5457H12.0231V83H36.1169V79.5457Z" fill="#FA5403"/>
</svg>
